<mxfile host="Electron" modified="2023-11-06T22:08:57.553Z" agent="Mozilla/5.0 (Macintosh; Intel Mac OS X 10_15_7) AppleWebKit/537.36 (KHTML, like Gecko) draw.io/21.6.8 Chrome/114.0.5735.289 Electron/25.5.0 Safari/537.36" etag="wvjbouUZuj1ZnrdBdI0z" version="21.6.8" type="device">
  <diagram name="Page-1" id="gP9iUO-8AAliEErmAQyt">
    <mxGraphModel dx="849" dy="534" grid="1" gridSize="10" guides="1" tooltips="1" connect="1" arrows="1" fold="1" page="1" pageScale="1" pageWidth="827" pageHeight="1169" math="0" shadow="0">
      <root>
        <mxCell id="0" />
        <mxCell id="1" parent="0" />
        <mxCell id="trDHLIx_rtf5WcR6h-1G-4" value="" style="rounded=0;whiteSpace=wrap;html=1;" vertex="1" parent="1">
          <mxGeometry x="70" y="330" width="520" height="148.25" as="geometry" />
        </mxCell>
        <mxCell id="trDHLIx_rtf5WcR6h-1G-6" style="edgeStyle=orthogonalEdgeStyle;rounded=0;orthogonalLoop=1;jettySize=auto;html=1;" edge="1" parent="1" source="trDHLIx_rtf5WcR6h-1G-1" target="trDHLIx_rtf5WcR6h-1G-2">
          <mxGeometry relative="1" as="geometry" />
        </mxCell>
        <mxCell id="trDHLIx_rtf5WcR6h-1G-1" value="client" style="sketch=0;outlineConnect=0;gradientColor=none;fontColor=#545B64;strokeColor=none;fillColor=#879196;dashed=0;verticalLabelPosition=bottom;verticalAlign=top;align=center;html=1;fontSize=12;fontStyle=0;aspect=fixed;shape=mxgraph.aws4.illustration_devices;pointerEvents=1" vertex="1" parent="1">
          <mxGeometry x="130" y="360" width="100" height="73" as="geometry" />
        </mxCell>
        <mxCell id="trDHLIx_rtf5WcR6h-1G-7" style="edgeStyle=orthogonalEdgeStyle;rounded=0;orthogonalLoop=1;jettySize=auto;html=1;" edge="1" parent="1" source="trDHLIx_rtf5WcR6h-1G-2" target="trDHLIx_rtf5WcR6h-1G-1">
          <mxGeometry relative="1" as="geometry" />
        </mxCell>
        <mxCell id="trDHLIx_rtf5WcR6h-1G-8" style="edgeStyle=orthogonalEdgeStyle;rounded=0;orthogonalLoop=1;jettySize=auto;html=1;entryX=0;entryY=0.5;entryDx=0;entryDy=0;" edge="1" parent="1" source="trDHLIx_rtf5WcR6h-1G-2" target="trDHLIx_rtf5WcR6h-1G-3">
          <mxGeometry relative="1" as="geometry" />
        </mxCell>
        <mxCell id="trDHLIx_rtf5WcR6h-1G-2" value="Url-Shortener&lt;br&gt;API" style="image;aspect=fixed;html=1;points=[];align=center;fontSize=12;image=img/lib/azure2/app_services/API_Management_Services.svg;" vertex="1" parent="1">
          <mxGeometry x="320" y="366.5" width="65" height="60" as="geometry" />
        </mxCell>
        <mxCell id="trDHLIx_rtf5WcR6h-1G-9" style="edgeStyle=orthogonalEdgeStyle;rounded=0;orthogonalLoop=1;jettySize=auto;html=1;" edge="1" parent="1" source="trDHLIx_rtf5WcR6h-1G-3" target="trDHLIx_rtf5WcR6h-1G-2">
          <mxGeometry relative="1" as="geometry" />
        </mxCell>
        <mxCell id="trDHLIx_rtf5WcR6h-1G-3" value="DynamoDB" style="image;aspect=fixed;perimeter=ellipsePerimeter;html=1;align=center;shadow=0;dashed=0;spacingTop=3;image=img/lib/active_directory/databases.svg;" vertex="1" parent="1">
          <mxGeometry x="480" y="368.25" width="57.65" height="56.5" as="geometry" />
        </mxCell>
        <mxCell id="trDHLIx_rtf5WcR6h-1G-5" value="" style="image;sketch=0;aspect=fixed;html=1;points=[];align=center;fontSize=12;image=img/lib/mscae/Docker.svg;" vertex="1" parent="1">
          <mxGeometry x="70" y="330" width="36.59" height="30" as="geometry" />
        </mxCell>
      </root>
    </mxGraphModel>
  </diagram>
</mxfile>
